name rise45.9887peak57.8056fall74.9286.mot
datacolumns 19
datarows 32
range 22.85325200000000 22.90491500000000
endheader
time	ground_force1_vx	ground_force1_vy	ground_force1_vz	ground_force1_px	ground_force1_py	ground_force1_pz	ground_force2_vx	ground_force2_vy	ground_force2_vz	ground_force2_px	ground_force2_py	ground_force2_pz	ground_torque1_x	ground_torque1_y	ground_torque1_z	ground_torque2_x	ground_torque2_y	ground_torque2_z	
22.85325200000000	-6.22859100000000	40.75602600000000	-10.19167300000000	0.23850500000000	0.00000000000000	0.12151200000000	-41.63424200000000	810.47260900000003	-63.72432100000000	0.08680100000000	0.00000000000000	-0.09956500000000	0.00000000000000	-4.94133300000000	0.00000000000000	0.00000000000000	-18.00079900000000	0.00000000000000	
22.85491000000000	-6.82787100000000	47.96562000000000	-11.45317300000000	0.24542700000000	0.00000000000000	0.12243200000000	-42.42980500000000	808.58933100000002	-63.51371700000000	0.08596100000000	0.00000000000000	-0.09945200000000	0.00000000000000	-5.67187400000000	0.00000000000000	0.00000000000000	-17.98789700000000	0.00000000000000	
22.85657700000000	-7.30653100000000	55.31442200000000	-12.59595700000000	0.25161300000000	0.00000000000000	0.12326500000000	-43.24819500000000	806.53571699999998	-63.27819800000000	0.08512500000000	0.00000000000000	-0.09933500000000	0.00000000000000	-6.36432900000000	0.00000000000000	0.00000000000000	-17.97870300000000	0.00000000000000	
22.85824400000000	-7.64677800000000	62.71045300000000	-13.59266500000000	0.25719100000000	0.00000000000000	0.12402700000000	-44.08848400000000	804.30780800000002	-63.01745000000000	0.08429400000000	0.00000000000000	-0.09921400000000	0.00000000000000	-7.00269900000000	0.00000000000000	0.00000000000000	-17.97312400000000	0.00000000000000	
22.85991400000000	-7.83767700000000	70.08241400000000	-14.42503800000000	0.26225700000000	0.00000000000000	0.12472800000000	-44.94960600000000	801.90169800000001	-62.73119200000000	0.08346800000000	0.00000000000000	-0.09909000000000	0.00000000000000	-7.57527900000000	0.00000000000000	0.00000000000000	-17.97103800000000	0.00000000000000	
22.86157700000000	-7.87507400000000	77.38206400000000	-15.08403600000000	0.26689000000000	0.00000000000000	0.12538000000000	-45.83034900000000	799.31354399999998	-62.41917500000000	0.08264700000000	0.00000000000000	-0.09896200000000	0.00000000000000	-8.07492000000000	0.00000000000000	0.00000000000000	-17.97229100000000	0.00000000000000	
22.86324800000000	-7.76098200000000	84.58430100000000	-15.56919100000000	0.27115200000000	0.00000000000000	0.12598800000000	-46.72936200000000	796.53957100000002	-62.08118700000000	0.08183200000000	0.00000000000000	-0.09883100000000	0.00000000000000	-8.49887400000000	0.00000000000000	0.00000000000000	-17.97670200000000	0.00000000000000	
22.86491900000000	-7.50256800000000	91.68532200000000	-15.88736100000000	0.27509400000000	0.00000000000000	0.12655900000000	-47.64515300000000	793.57608900000002	-61.71704800000000	0.08102400000000	0.00000000000000	-0.09869600000000	0.00000000000000	-8.84831300000000	0.00000000000000	0.00000000000000	-17.98405800000000	0.00000000000000	
22.86657700000000	-7.11089800000000	98.69936000000000	-16.05110400000000	0.27875600000000	0.00000000000000	0.12709700000000	-48.57609200000000	790.41949999999997	-61.32661800000000	0.08022100000000	0.00000000000000	-0.09855700000000	0.00000000000000	-9.12759600000000	0.00000000000000	0.00000000000000	-17.99411700000000	0.00000000000000	
22.86824600000000	-6.59958400000000	105.65449800000000	-16.07686700000000	0.28217200000000	0.00000000000000	0.12760800000000	-49.52041300000000	787.06631000000004	-60.90979000000000	0.07942600000000	0.00000000000000	-0.09841400000000	0.00000000000000	-9.34340800000000	0.00000000000000	0.00000000000000	-18.00661100000000	0.00000000000000	
22.86991500000000	-5.98346000000000	112.58807899999999	-15.98317200000000	0.28537000000000	0.00000000000000	0.12809400000000	-50.47621700000000	783.51314000000002	-60.46650000000000	0.07863700000000	0.00000000000000	-0.09826700000000	0.00000000000000	-9.50386000000000	0.00000000000000	0.00000000000000	-18.02124100000000	0.00000000000000	
22.87157700000000	-5.27739300000000	119.54216200000000	-15.78894900000000	0.28837300000000	0.00000000000000	0.12855800000000	-51.44147700000000	779.75674300000003	-59.99672000000000	0.07785600000000	0.00000000000000	-0.09811700000000	0.00000000000000	-9.61762000000000	0.00000000000000	0.00000000000000	-18.03768100000000	0.00000000000000	
22.87325100000000	-4.49529500000000	126.55936199999999	-15.51212200000000	0.29120200000000	0.00000000000000	0.12900300000000	-52.41404200000000	775.79401600000006	-59.50046600000000	0.07708300000000	0.00000000000000	-0.09796300000000	0.00000000000000	-9.69315700000000	0.00000000000000	0.00000000000000	-18.05557900000000	0.00000000000000	
22.87491600000000	-3.64939100000000	133.67935100000000	-15.16852200000000	0.29387100000000	0.00000000000000	0.12943100000000	-53.39164000000000	771.62201400000004	-58.97779300000000	0.07631800000000	0.00000000000000	-0.09780400000000	0.00000000000000	-9.73813100000000	0.00000000000000	0.00000000000000	-18.07455900000000	0.00000000000000	
22.87658000000000	-2.74973800000000	140.93616599999999	-14.77113900000000	0.29639700000000	0.00000000000000	0.12984300000000	-54.37188700000000	767.23796600000003	-58.42879800000000	0.07556100000000	0.00000000000000	-0.09764200000000	0.00000000000000	-9.75894400000000	0.00000000000000	0.00000000000000	-18.09422000000000	0.00000000000000	
22.87825200000000	-1.80400200000000	148.35639200000000	-14.32973300000000	0.29878900000000	0.00000000000000	0.13024100000000	-55.35229100000000	762.63929299999995	-57.85362200000000	0.07481300000000	0.00000000000000	-0.09747600000000	0.00000000000000	-9.76048200000000	0.00000000000000	0.00000000000000	-18.11413900000000	0.00000000000000	
22.87991200000000	-0.81746300000000	155.95819399999999	-13.85075100000000	0.30105900000000	0.00000000000000	0.13062600000000	-56.33026000000000	757.82361900000001	-57.25244900000000	0.07407400000000	0.00000000000000	-0.09730700000000	0.00000000000000	-9.74600200000000	0.00000000000000	0.00000000000000	-18.13386900000000	0.00000000000000	
22.88158100000000	0.20681100000000	163.75112500000000	-13.33750900000000	0.30321500000000	0.00000000000000	0.13100000000000	-57.30311000000000	752.78879700000005	-56.62550900000000	0.07334400000000	0.00000000000000	-0.09713300000000	0.00000000000000	-9.71718300000000	0.00000000000000	0.00000000000000	-18.15294900000000	0.00000000000000	
22.88324400000000	1.26763400000000	171.73657900000001	-12.79057900000000	0.30526500000000	0.00000000000000	0.13136300000000	-58.26807000000000	747.53291600000000	-55.97307400000000	0.07262200000000	0.00000000000000	-0.09695500000000	0.00000000000000	-9.67427400000000	0.00000000000000	0.00000000000000	-18.17089500000000	0.00000000000000	
22.88491700000000	2.36530300000000	179.90873700000000	-12.20830900000000	0.30721400000000	0.00000000000000	0.13171700000000	-59.22229200000000	742.05432499999995	-55.29546300000000	0.07191000000000	0.00000000000000	-0.09677400000000	0.00000000000000	-9.61633600000000	0.00000000000000	0.00000000000000	-18.18721000000000	0.00000000000000	
22.88658600000000	3.50114200000000	188.25584599999999	-11.58742100000000	0.30906800000000	0.00000000000000	0.13206200000000	-60.16286300000000	736.35164399999996	-54.59304000000000	0.07120800000000	0.00000000000000	-0.09658900000000	0.00000000000000	-9.54153000000000	0.00000000000000	0.00000000000000	-18.20138100000000	0.00000000000000	
22.88824300000000	4.67706100000000	196.76166799999999	-10.92361600000000	0.31083200000000	0.00000000000000	0.13239800000000	-61.08680700000000	730.42378099999996	-53.86621300000000	0.07051400000000	0.00000000000000	-0.09640000000000	0.00000000000000	-9.44741600000000	0.00000000000000	0.00000000000000	-18.21288600000000	0.00000000000000	
22.88991900000000	5.89513500000000	205.40697599999999	-10.21215700000000	0.31251000000000	0.00000000000000	0.13272700000000	-61.99110100000000	724.26994700000000	-53.11543800000000	0.06983000000000	0.00000000000000	-0.09620700000000	0.00000000000000	-9.33126100000000	0.00000000000000	0.00000000000000	-18.22118900000000	0.00000000000000	
22.89158200000000	7.15725000000000	214.17096100000001	-9.44837400000000	0.31410500000000	0.00000000000000	0.13304800000000	-62.87268300000000	717.88966400000004	-52.34121600000000	0.06915500000000	0.00000000000000	-0.09601000000000	0.00000000000000	-9.19030300000000	0.00000000000000	0.00000000000000	-18.22574900000000	0.00000000000000	
22.89325200000000	8.46482300000000	223.03247500000001	-8.62808100000000	0.31562000000000	0.00000000000000	0.13336300000000	-63.72846300000000	711.28278000000000	-51.54409400000000	0.06849000000000	0.00000000000000	-0.09581000000000	0.00000000000000	-9.02197600000000	0.00000000000000	0.00000000000000	-18.22601900000000	0.00000000000000	
22.89491500000000	9.81859400000000	231.97105800000000	-7.74788700000000	0.31705600000000	0.00000000000000	0.13367100000000	-64.55533100000000	704.44947200000001	-50.72466500000000	0.06783300000000	0.00000000000000	-0.09560600000000	0.00000000000000	-8.82409300000000	0.00000000000000	0.00000000000000	-18.22144900000000	0.00000000000000	
22.89658200000000	11.21850500000000	240.96769399999999	-6.80539300000000	0.31841700000000	0.00000000000000	0.13397400000000	-65.35017400000000	697.39025900000001	-49.88356900000000	0.06718500000000	0.00000000000000	-0.09539800000000	0.00000000000000	-8.59495700000000	0.00000000000000	0.00000000000000	-18.21148700000000	0.00000000000000	
22.89825300000000	12.66365900000000	250.00532799999999	-5.79929700000000	0.31970400000000	0.00000000000000	0.13427000000000	-66.10988200000000	690.10600099999999	-49.02149300000000	0.06654700000000	0.00000000000000	-0.09518700000000	0.00000000000000	-8.33343500000000	0.00000000000000	0.00000000000000	-18.19558400000000	0.00000000000000	
22.89991700000000	14.15232600000000	259.06912499999999	-4.72939800000000	0.32091800000000	0.00000000000000	0.13456100000000	-66.83136800000000	682.59790499999997	-48.13916800000000	0.06591600000000	0.00000000000000	-0.09497200000000	0.00000000000000	-8.03897200000000	0.00000000000000	0.00000000000000	-18.17319600000000	0.00000000000000	
22.90158600000000	15.68201800000000	268.14652200000000	-3.59654100000000	0.32206000000000	0.00000000000000	0.13484700000000	-67.51157100000000	674.86752700000000	-47.23737600000000	0.06529400000000	0.00000000000000	-0.09475400000000	0.00000000000000	-7.71157100000000	0.00000000000000	0.00000000000000	-18.14378700000000	0.00000000000000	
22.90324500000000	17.24958900000000	277.22711299999997	-2.40249200000000	0.32313100000000	0.00000000000000	0.13512800000000	-68.14748000000000	666.91677800000002	-46.31694200000000	0.06468000000000	0.00000000000000	-0.09453200000000	0.00000000000000	-7.35174300000000	0.00000000000000	0.00000000000000	-18.10682900000000	0.00000000000000	
22.90491500000000	18.85136000000000	286.30239599999999	-1.14979000000000	0.32413100000000	0.00000000000000	0.13540300000000	-68.73613899999999	658.74792000000002	-45.37873900000000	0.06407200000000	0.00000000000000	-0.09430600000000	0.00000000000000	-6.96043200000000	0.00000000000000	0.00000000000000	-18.06180900000000	0.00000000000000	
